<svg width="64" height="64" viewBox="0 0 64 64" fill="none" xmlns="http://www.w3.org/2000/svg">
<circle cx="32" cy="32" r="32" fill="white"/>
<path d="M38.6667 14.5833H46.5833L51.3333 17.75L52.9167 25.6667L54.5 26.4583L56.875 29.625L56.0833 32L53.7083 34.375L50.5417 42.2917L49.75 43.875L51.3333 48.625L49.75 50.2083L45 43.875H30.75L38.6667 14.5833Z" fill="white"/>
<path d="M15.2821 43.0284L19.6667 44.2479L17.0614 49.9393L14.7737 50.2208L13.0897 48.6259L15.2821 43.0284Z" fill="#0984E3"/>
<path d="M28.1239 14.1964C28.1829 14.1588 28.2518 14.1388 28.3221 14.1388H47.596C47.7315 14.1388 47.7853 14.3115 47.673 14.3862L42.1219 18.0802C40.154 19.3897 39.6199 22.0121 40.923 23.9669C41.8174 25.3086 41.6761 27.0759 40.5796 28.2634L37.8521 31.2175C37.8271 31.2446 37.7916 31.2601 37.7543 31.2601H28.2509C28.2265 31.2601 28.2024 31.2625 28.1786 31.2672L19.3421 33.0227C19.1763 33.0557 19.0093 32.9723 18.9382 32.8213L14.4411 23.2653C14.3646 23.1026 14.4214 22.9093 14.5744 22.8121L28.1239 14.1964Z" fill="#84C1F1"/>
<path d="M17.4763 14.2301C17.5432 14.1713 17.6298 14.1388 17.7196 14.1388H31.2437C31.3627 14.1388 31.4486 14.2507 31.4162 14.3632L30.4963 17.5583C29.8303 19.8717 27.8968 21.6185 25.4979 22.0738C22.6569 22.6131 20.3467 24.6453 19.4844 27.3637L18.6314 31.7602C18.5909 31.8878 18.165 31.032 18.0754 30.9315L13.0212 25.5658C12.9658 25.5038 12.7775 25.3002 12.7402 25.1913C12.7325 25.1686 12.7323 25.1443 12.7291 25.1206L12.3584 22.3739V20.4749L13.2535 18.1242C13.2691 18.0836 13.2759 18.0405 13.2858 17.9982C13.3024 17.9259 13.3418 17.8599 13.3987 17.8099L17.4763 14.2301Z" fill="#0984E3"/>
<path d="M18.3804 32.5741C18.448 32.7049 18.5894 32.7822 18.7378 32.7693L35.4966 31.514C35.6316 31.5038 35.7109 31.6601 35.6218 31.7602C34.1257 33.8147 33.7135 35.2961 34.5256 37.694C35.0777 39.3239 34.5846 41.1027 33.4485 42.4072L32.3333 43.6877C32.2898 43.7469 31.7983 43.9796 31.7244 43.9873L31.1306 44.1007C31.1077 44.1049 31.0845 44.1073 31.0612 44.1073H22.7147L17.2455 43.587C17.1685 43.5796 17.0958 43.5485 17.038 43.498L14.0928 40.9235C14.0424 40.8793 14.0053 40.8224 13.9858 40.7588L12.9835 37.4995C12.9733 37.4657 12.968 37.4305 12.968 37.3952V31.9546C12.968 31.888 12.9867 31.8226 13.0223 31.7658L15.3884 27.99C15.5382 27.7511 15.8958 27.7656 16.0251 28.0158L18.3804 32.5741Z" fill="#84C1F1"/>
<path d="M11.2373 26.4612C11.2704 26.4384 11.2989 26.4098 11.3289 26.3832C11.4178 26.3043 11.5419 26.2724 11.6607 26.3011L15.482 27.225C15.5869 27.2503 15.675 27.3199 15.7227 27.4153L17.693 31.3509C17.7065 31.3779 17.6941 31.4104 17.6661 31.4219C15.6896 32.2335 14.6275 34.3586 15.1806 36.3948L15.3307 36.9478C15.5373 37.7081 15.5116 38.5114 15.2568 39.2574L14.4086 41.7412C14.3485 41.9173 14.094 41.9132 14.0399 41.7354L12.1584 35.5638C12.1389 35.4994 12.1012 35.4415 12.0498 35.3971L9.67357 33.3416C9.62508 33.2996 9.58867 33.2458 9.56825 33.1856L8.52444 30.1185C8.4922 30.0236 8.50179 29.9206 8.54917 29.834C8.56946 29.7969 8.59239 29.7608 8.60753 29.7214L9.36843 27.7477L11.2373 26.4612Z" fill="#0984E3"/>
<path d="M21.1093 13C15.5805 13 11.0584 17.4258 11.0584 22.875V25.1562C8.73592 25.7343 7 27.8242 7 30.2812C7 32.496 8.45052 34.3203 10.4243 35.0938L12.9608 41.5313C13.2066 42.2812 13.6306 42.875 14.1339 43.3437L12.3584 46.8749C11.6489 48.2694 12.2117 49.9883 13.6266 50.6874C14.0348 50.8906 14.4906 51 14.9265 51C15.9848 51 17.0231 50.4257 17.5264 49.4374L19.7459 45H23.5397C24.1007 45 24.5556 44.5523 24.5556 44C24.5556 43.4476 24.1007 42.9999 23.5397 42.9999H21.6031H31.3492H29.8366C29.3086 42.9999 28.8012 43.4802 28.8012 44C28.8012 44.5168 29.3113 44.996 29.8366 45H44.9391L47.1401 49.4374C47.6435 50.4257 48.6819 51 49.74 51C50.1761 51 50.6318 50.8906 51.0401 50.6874C52.4549 49.9883 53.0176 48.2694 52.3083 46.8749L50.5327 43.3437C51.036 42.875 51.4601 42.2812 51.7058 41.5313L54.2423 35.0938C56.216 34.3203 57.6667 32.496 57.6667 30.2812C57.6667 27.8242 55.9307 25.7343 53.6082 25.1562V22.875C53.6082 17.4258 49.0861 13 43.5574 13H21.1093ZM21.1093 15H36.4919C37.053 15 37.5078 14.5523 37.5078 14C37.5078 13.4477 37.053 13 36.4919 13H32.4601H43.5574H42.7142C42.1531 13 41.6983 13.4477 41.6983 14C41.6983 14.5523 42.1531 15 42.7142 15H43.5574C47.9883 15 51.5791 18.5078 51.5791 22.875V25.0625C49.645 25.332 48.0199 26.6289 47.3303 28.3749L45.6817 32.0937C45.5469 32.0508 45.4677 32.0196 45.3012 31.9687C44.5363 31.7421 43.4543 31.4453 42.1623 31.1562C39.5742 30.5781 36.1104 29.9999 32.4601 29.9999C28.81 29.9999 25.2787 30.5742 22.6312 31.1562C21.3074 31.4453 20.1858 31.7383 19.3971 31.9687C19.2189 32.0196 19.1277 32.0508 18.985 32.0937L17.4314 28.6562C16.8131 26.7695 15.1208 25.3476 13.0876 25.0625V22.875C13.0876 18.5078 16.6784 15 21.1093 15ZM12.3584 27C13.8684 27 15.1565 28.1094 15.5607 29.4687L17.5264 33.75L18.0021 34.7812L18.3014 34.6239C19.2082 34.1472 20.1701 33.7793 21.1686 33.5385C21.802 33.3859 22.5197 33.2161 23.075 33.0937C25.6234 32.5351 29.0279 32 32.4601 32C35.8924 32 39.2333 32.539 41.7183 33.0937C42.3147 33.2271 43.1106 33.4272 43.7765 33.599C44.6334 33.8202 45.4603 34.1389 46.2477 34.5384L46.6646 34.75L47.1401 33.7187L49.201 29.1875C49.6726 27.9452 50.8775 27 52.3083 27C54.1512 27 55.6374 28.4648 55.6374 30.2812C55.6374 31.7891 54.599 33.0234 53.196 33.4063L52.6887 33.5312L52.5302 34L49.8352 40.8124C49.5378 41.8319 48.6304 42.4218 47.6474 42.7186C46.8033 42.9765 46.1334 42.9999 45.9352 42.9999H21.6031H18.763C18.5966 42.9999 17.891 42.9843 17.0191 42.7186C16.0363 42.4218 15.1287 41.8007 14.8315 40.7812L12.1364 34L11.9779 33.5312L11.4706 33.4063C10.0636 33.0234 9.02925 31.7891 9.02925 30.2812C9.02925 28.4648 10.5155 27 12.3584 27ZM15.8778 44.4062C16.056 44.4765 16.2464 44.5741 16.4168 44.6249C16.825 44.7499 17.2054 44.8202 17.5582 44.875L15.6875 48.5312C15.5329 48.8359 15.2436 48.9999 14.9265 48.9999C14.7998 48.9999 14.6729 48.9687 14.5461 48.9062C14.1102 48.6913 13.9476 48.2109 14.1656 47.7812L15.8778 44.4062ZM48.7889 44.4062L50.5011 47.7812C50.7189 48.2109 50.5565 48.6913 50.1205 48.9062C49.9938 48.9687 49.8669 48.9999 49.74 48.9999C49.4229 48.9999 49.1336 48.8397 48.9791 48.5312L47.1084 44.875C47.4612 44.8202 47.8417 44.7499 48.2499 44.6249C48.4203 44.5741 48.6105 44.4765 48.7889 44.4062Z" fill="black"/>
</svg>
