<svg width="364" height="273" viewBox="0 0 364 273" fill="none" xmlns="http://www.w3.org/2000/svg">
<path d="M227.5 11.375H284.375L318.5 34.125L329.875 91L341.25 96.6875L358.312 119.438L352.625 136.5L335.562 153.562L312.812 210.438L307.125 221.812L318.5 255.938L307.125 267.312L273 221.812H170.625L227.5 11.375Z" fill="white"/>
<path d="M59.5002 215.73L91.0003 224.491L72.2829 265.38L55.8476 267.402L43.7497 255.944L59.5002 215.73Z" fill="#0984E3"/>
<path d="M151.758 8.59487C152.182 8.32495 152.678 8.18137 153.183 8.18137H291.65C292.624 8.18137 293.01 9.42215 292.203 9.95911L252.323 36.4972C238.185 45.9047 234.348 64.7449 243.71 78.7884C250.136 88.4273 249.12 101.124 241.243 109.656L221.648 130.879C221.469 131.073 221.213 131.184 220.946 131.184H152.671C152.496 131.184 152.322 131.202 152.152 131.235L88.6683 143.847C87.4774 144.084 86.2775 143.486 85.7664 142.401L53.4587 73.7478C52.9087 72.5793 53.317 71.1906 54.4161 70.4919L151.758 8.59487Z" fill="#84C1F1"/>
<path d="M75.2637 8.83695C75.7449 8.41472 76.3668 8.18137 77.0117 8.18137H174.172C175.027 8.18137 175.644 8.98498 175.411 9.79375L168.803 32.7476C164.018 49.3679 150.127 61.9169 132.893 65.1882C112.483 69.0626 95.8857 83.6623 89.6905 103.192L83.5622 134.777C83.2717 135.694 80.2121 129.546 79.5682 128.824L43.2575 90.2757C42.8592 89.8299 41.5066 88.3675 41.2391 87.5848C41.1832 87.4221 41.1822 87.2473 41.1592 87.077L38.4958 67.3439V53.701L44.9266 36.8135C45.0384 36.5219 45.0874 36.2118 45.1582 35.9083C45.278 35.389 45.5605 34.9149 45.9698 34.5553L75.2637 8.83695Z" fill="#0984E3"/>
<path d="M81.7594 140.625C82.2445 141.564 83.2608 142.119 84.3269 142.027L204.726 133.008C205.695 132.935 206.265 134.058 205.625 134.777C194.877 149.537 191.915 160.18 197.75 177.407C201.716 189.117 198.173 201.896 190.012 211.267L181.999 220.467C181.687 220.892 178.156 222.564 177.625 222.619L173.36 223.434C173.195 223.464 173.028 223.481 172.86 223.481H112.898L73.6056 219.744C73.0526 219.691 72.5305 219.466 72.1152 219.104L50.9561 200.608C50.5938 200.291 50.3272 199.882 50.1875 199.425L42.987 176.009C42.9131 175.767 42.8752 175.514 42.8752 175.26V136.174C42.8752 135.695 43.01 135.225 43.2655 134.817L60.2639 107.691C61.34 105.975 63.9095 106.079 64.8379 107.877L81.7594 140.625Z" fill="#84C1F1"/>
<path d="M30.4419 96.7082C30.6795 96.5446 30.8841 96.3391 31.0998 96.1479C31.7386 95.5807 32.6301 95.3515 33.4836 95.5579L60.9367 102.195C61.6904 102.377 62.3233 102.877 62.6657 103.562L76.821 131.837C76.9178 132.03 76.829 132.264 76.6273 132.347C62.4281 138.178 54.7974 153.445 58.7715 168.073L59.8496 172.046C61.334 177.508 61.1493 183.279 59.3185 188.639L53.2252 206.483C52.7929 207.748 50.9651 207.718 50.5758 206.441L37.0594 162.103C36.9186 161.64 36.6481 161.225 36.2787 160.905L19.2075 146.138C18.8591 145.836 18.5976 145.45 18.4508 145.018L10.9519 122.983C10.7203 122.301 10.7892 121.561 11.1296 120.939C11.2753 120.672 11.44 120.413 11.5489 120.13L17.0153 105.951L30.4419 96.7082Z" fill="#0984E3"/>
<path d="M101.364 0C61.6445 0 29.1561 31.7957 29.1561 70.944V87.3329C12.4712 91.4862 0 106.5 0 124.151C0 140.064 10.4208 153.17 24.6011 158.726L42.8233 204.975C44.5892 210.362 47.6359 214.628 51.2516 217.995L38.4958 243.365C33.3987 253.383 37.4417 265.731 47.6069 270.754C50.5398 272.214 53.8141 273 56.9457 273C64.5484 273 72.0084 268.874 75.6241 261.774L91.5693 229.895H118.825C122.855 229.895 126.123 226.678 126.123 222.711C126.123 218.742 122.855 215.526 118.825 215.526H104.912H174.93H164.063C160.269 215.526 156.625 218.976 156.625 222.711C156.625 226.424 160.289 229.866 164.063 229.895H272.563L288.375 261.774C291.992 268.874 299.452 273 307.053 273C310.186 273 313.46 272.214 316.393 270.754C326.557 265.731 330.6 253.383 325.504 243.365L312.748 217.995C316.364 214.628 319.411 210.362 321.176 204.975L339.399 158.726C353.578 153.17 364 140.064 364 124.151C364 106.5 351.529 91.4862 334.843 87.3329V70.944C334.843 31.7957 302.356 0 262.636 0H101.364ZM101.364 14.3684H211.876C215.907 14.3684 219.175 11.1519 219.175 7.1842C219.175 3.21647 215.907 0 211.876 0H182.911H262.636H256.578C252.547 0 249.28 3.21647 249.28 7.1842C249.28 11.1519 252.547 14.3684 256.578 14.3684H262.636C294.468 14.3684 320.265 39.5692 320.265 70.944V86.6594C306.371 88.5957 294.696 97.9128 289.742 110.457L277.897 137.173C276.929 136.865 276.36 136.641 275.164 136.275C269.669 134.647 261.895 132.515 252.613 130.438C234.02 126.285 209.135 122.131 182.911 122.131C156.688 122.131 131.318 126.257 112.298 130.438C102.788 132.515 94.7298 134.62 89.0636 136.275C87.7829 136.641 87.128 136.865 86.1028 137.173L74.9413 112.477C70.499 98.9228 58.3412 88.708 43.7347 86.6594V70.944C43.7347 39.5692 69.5317 14.3684 101.364 14.3684ZM38.4958 100.579C49.3439 100.579 58.5978 108.549 61.5017 118.315L75.6241 149.073L79.0411 156.481L81.1914 155.351C87.706 151.926 94.6169 149.283 101.79 147.553C106.34 146.456 111.496 145.237 115.487 144.357C133.795 140.345 158.253 136.5 182.911 136.5C207.569 136.5 231.571 140.372 249.424 144.357C253.708 145.315 259.426 146.753 264.21 147.988C270.366 149.577 276.307 151.867 281.964 154.736L284.959 156.257L288.375 148.848L303.181 116.294C306.569 107.37 315.225 100.579 325.504 100.579C338.744 100.579 349.421 111.102 349.421 124.151C349.421 134.985 341.961 143.852 331.882 146.603L328.237 147.5L327.098 150.868L307.737 199.81C305.601 207.135 299.081 211.372 292.02 213.505C285.955 215.358 281.143 215.526 279.719 215.526H104.912H84.5076C83.3127 215.526 78.2435 215.414 71.9794 213.505C64.9188 211.372 58.3981 206.911 56.2629 199.586L36.9006 150.868L35.7626 147.5L32.118 146.603C22.0096 143.852 14.5786 134.985 14.5786 124.151C14.5786 111.102 25.2559 100.579 38.4958 100.579ZM63.7797 225.628C65.0605 226.134 66.4281 226.835 67.652 227.2C70.5849 228.098 73.3181 228.603 75.8527 228.996L62.4131 255.264C61.3021 257.453 59.2237 258.631 56.9457 258.631C56.0353 258.631 55.1238 258.407 54.2124 257.958C51.0809 256.414 49.9129 252.962 51.4792 249.875L63.7797 225.628ZM300.22 225.628L312.521 249.875C314.086 252.962 312.919 256.414 309.787 257.958C308.876 258.407 307.965 258.631 307.053 258.631C304.775 258.631 302.697 257.48 301.587 255.264L288.147 228.996C290.682 228.603 293.415 228.098 296.348 227.2C297.572 226.835 298.939 226.134 300.22 225.628Z" fill="black"/>
</svg>
