<svg width="638" height="139" viewBox="0 0 638 139" fill="none" xmlns="http://www.w3.org/2000/svg">
<path d="M7.08753 73.862C8.93645 73.931 10.5115 74.616 11.8126 75.916C13.1136 77.149 13.7984 78.689 13.8669 80.537V130.856C13.456 134.963 11.1962 137.188 7.08753 137.531C5.17013 137.531 3.49241 136.915 2.05436 135.682C0.684786 134.382 0 132.773 0 130.856V80.537C0.0684786 78.62 0.787503 77.046 2.15707 75.814C3.52665 74.513 5.17013 73.862 7.08753 73.862ZM24.6523 91.936C29.2403 88.855 35.4377 85.74 43.2442 82.591L60.0899 75.403C60.8432 75.06 61.6649 74.855 62.5552 74.787C64.4726 74.65 66.1161 75.232 67.4856 76.532C68.8552 77.765 69.54 79.374 69.54 81.359C69.54 83.618 69.0606 85.295 68.1019 86.391C67.2117 87.418 66.0476 88.273 64.6095 88.958L50.229 94.401C47.4214 95.496 44.7507 96.591 42.217 97.687C39.7518 98.714 37.492 99.912 35.4377 101.281C33.3833 102.513 32.2876 103.917 32.1507 105.491C32.2876 106.997 33.3833 108.401 35.4377 109.702C37.492 111.071 39.7518 112.303 42.217 113.398C44.7507 114.425 47.4214 115.486 50.229 116.582L66.253 122.435C67.6911 123.12 68.8552 124.01 69.7454 125.105C70.7041 126.132 71.1835 127.775 71.1835 130.034C71.1835 132.02 70.4987 133.663 69.1291 134.964C67.7595 136.196 66.116 136.743 64.1986 136.607C63.3084 136.538 62.4867 136.333 61.7334 135.99L43.2442 128.391C35.4377 125.242 29.2061 122.127 24.5496 119.046C19.9615 115.897 17.6332 111.379 17.5648 105.491C17.6332 99.604 19.9957 95.085 24.6523 91.936Z" fill="black"/>
<path d="M104.669 120.176C104.669 118.259 105.32 116.65 106.621 115.35C107.991 113.98 109.634 113.296 111.552 113.296H127.267L124.597 105.697C123.501 102.89 122.405 100.254 121.31 97.789C120.283 95.256 119.084 92.963 117.715 90.909C116.482 88.855 115.078 87.76 113.503 87.623C111.86 87.76 110.387 88.855 109.086 90.909C107.785 92.963 106.587 95.256 105.491 97.789C104.464 100.254 103.403 102.89 102.307 105.697L92.5488 132.396C91.864 133.834 90.9738 135.032 89.8781 135.99C88.8509 136.88 87.2759 137.325 85.1531 137.325C83.1672 137.325 81.5237 136.641 80.2226 135.272C78.99 133.902 78.4422 132.259 78.5791 130.342C78.6476 129.452 78.8531 128.631 79.1954 127.878L90.4944 98.714C93.6444 91.046 96.7944 84.85 99.9445 80.127C103.026 75.471 107.546 73.109 113.503 73.041C119.392 73.109 123.878 75.471 126.959 80.127C130.109 84.713 133.259 90.909 136.409 98.714L147.708 127.878C148.051 128.631 148.256 129.452 148.325 130.342C148.462 132.259 147.879 133.902 146.578 135.272C145.346 136.641 143.736 137.325 141.751 137.325C139.491 137.325 137.813 136.88 136.717 135.99C135.69 135.032 134.834 133.834 134.149 132.396L132.198 127.056H111.552C109.634 127.056 108.025 126.372 106.724 125.002C105.354 123.702 104.669 122.093 104.669 120.176Z" fill="black"/>
<path d="M191.363 72.733C194.924 72.733 198.417 73.144 201.841 73.965C205.333 74.787 208.654 76.019 211.804 77.662C214.954 79.237 217.728 81.359 220.124 84.029C222.59 86.699 223.925 89.882 224.13 93.579V130.65C223.719 134.758 221.46 136.983 217.351 137.325C215.434 137.325 213.756 136.709 212.318 135.477C210.948 134.176 210.263 132.567 210.263 130.65V96.763C210.126 94.64 209.305 92.894 207.798 91.525C206.36 90.088 204.717 88.958 202.868 88.136C201.087 87.315 199.204 86.699 197.218 86.288C195.301 85.877 193.349 85.672 191.363 85.672C189.377 85.672 187.392 85.877 185.406 86.288C183.488 86.699 181.605 87.315 179.756 88.136C177.976 88.958 176.332 90.088 174.826 91.525C173.388 92.894 172.6 94.64 172.463 96.763V130.65C172.121 134.758 169.895 136.983 165.787 137.325C163.869 137.325 162.191 136.709 160.753 135.477C159.384 134.176 158.699 132.567 158.699 130.65V93.579C158.904 89.882 160.206 86.699 162.602 84.029C164.999 81.359 167.772 79.237 170.922 77.662C174.072 76.019 177.359 74.787 180.783 73.965C184.276 73.144 187.802 72.733 191.363 72.733Z" fill="black"/>
<path d="M260.184 120.176C260.184 118.259 260.835 116.65 262.136 115.35C263.505 113.98 265.149 113.296 267.066 113.296H282.782L280.112 105.697C279.016 102.89 277.92 100.254 276.825 97.789C275.797 95.256 274.599 92.963 273.229 90.909C271.997 88.855 270.593 87.76 269.018 87.623C267.375 87.76 265.902 88.855 264.601 90.909C263.3 92.963 262.102 95.256 261.006 97.789C259.979 100.254 258.917 102.89 257.822 105.697L248.064 132.396C247.379 133.834 246.489 135.032 245.393 135.99C244.366 136.88 242.791 137.325 240.668 137.325C238.682 137.325 237.039 136.641 235.737 135.272C234.505 133.902 233.957 132.259 234.094 130.342C234.162 129.452 234.368 128.631 234.71 127.878L246.009 98.714C249.159 91.046 252.309 84.85 255.459 80.127C258.541 75.471 263.06 73.109 269.018 73.041C274.907 73.109 279.393 75.471 282.474 80.127C285.624 84.713 288.774 90.909 291.924 98.714L303.223 127.878C303.565 128.631 303.771 129.452 303.839 130.342C303.976 132.259 303.394 133.902 302.093 135.272C300.861 136.641 299.251 137.325 297.265 137.325C295.006 137.325 293.328 136.88 292.232 135.99C291.205 135.032 290.349 133.834 289.664 132.396L287.713 127.056H267.066C265.149 127.056 263.54 126.372 262.239 125.002C260.869 123.702 260.184 122.093 260.184 120.176Z" fill="black"/>
<path d="M327.978 130.65C327.567 134.758 325.307 136.983 321.199 137.325C319.281 137.325 317.604 136.709 316.165 135.477C314.796 134.176 314.111 132.567 314.111 130.65V82.18C314.18 80.264 314.899 78.689 316.268 77.457C317.638 76.156 319.281 75.505 321.199 75.505H364.34C370.366 75.711 374.92 77.046 378.002 79.51C381.083 81.907 383.309 84.645 384.678 87.726C386.048 90.806 386.733 93.921 386.733 97.071C386.733 100.357 386.048 103.54 384.678 106.621C383.377 109.702 381.152 112.474 378.002 114.939C374.92 117.335 370.983 118.499 366.189 118.43H340.304C338.387 118.43 336.778 117.746 335.476 116.376C334.107 115.076 333.422 113.467 333.422 111.55C333.422 109.633 334.073 108.024 335.374 106.724C336.743 105.354 338.387 104.67 340.304 104.67H366.805C368.107 104.67 369.168 104.259 369.99 103.437C370.88 102.547 371.53 101.555 371.941 100.459C372.352 99.296 372.558 98.132 372.558 96.968C372.558 95.873 372.352 94.777 371.941 93.682C371.53 92.518 370.88 91.525 369.99 90.704C369.168 89.814 368.107 89.335 366.805 89.266H330.649C328.868 89.335 327.978 90.225 327.978 91.936V130.65Z" fill="black"/>
<path d="M452.78 75.505C456.273 75.574 459.388 76.669 462.128 78.792C464.867 80.914 467.058 83.447 468.702 86.391C470.413 89.335 471.68 92.449 472.502 95.736C473.324 99.022 473.735 102.376 473.735 105.799C473.735 110.318 473.016 114.768 471.578 119.149C470.208 123.462 467.914 127.296 464.695 130.65C461.545 134.005 457.574 135.819 452.78 136.093H416.932C412.138 135.888 408.132 134.108 404.914 130.753C401.695 127.399 399.401 123.531 398.032 119.149C396.731 114.768 396.08 110.318 396.08 105.799C396.08 101.281 396.765 96.865 398.134 92.552C399.504 88.171 401.764 84.303 404.914 80.948C408.132 77.525 412.138 75.711 416.932 75.505H452.78ZM449.288 122.333C451.89 122.196 454.047 121.237 455.759 119.457C457.539 117.609 458.806 115.486 459.56 113.09C460.313 110.694 460.69 108.264 460.69 105.799C460.69 103.335 460.279 100.939 459.457 98.611C458.704 96.215 457.471 94.093 455.759 92.244C454.047 90.396 451.89 89.403 449.288 89.266H420.116C417.514 89.403 415.357 90.396 413.645 92.244C411.933 94.093 410.666 96.215 409.844 98.611C409.091 100.939 408.714 103.335 408.714 105.799C408.714 108.264 409.091 110.694 409.844 113.09C410.597 115.486 411.83 117.609 413.542 119.457C415.322 121.237 417.514 122.196 420.116 122.333H449.288Z" fill="black"/>
<path d="M506.707 138.455C504.379 138.455 502.051 138.044 499.722 137.223C497.462 136.401 495.271 135.203 493.148 133.629C491.026 131.985 489.177 129.829 487.602 127.159C486.027 124.489 485.171 121.306 485.034 117.609V80.537C485.034 78.62 485.718 77.046 487.088 75.814C488.526 74.513 490.204 73.862 492.121 73.862C496.23 74.205 498.455 76.43 498.798 80.537V116.787C498.866 118.43 499.209 119.834 499.825 120.998C500.441 122.093 501.126 122.983 501.879 123.667C502.633 124.284 503.386 124.763 504.139 125.105C504.961 125.379 505.783 125.516 506.604 125.516C507.426 125.516 508.248 125.379 509.07 125.105C509.891 124.763 510.679 124.284 511.432 123.667C512.185 122.983 512.87 122.093 513.486 120.998C514.103 119.834 514.411 118.43 514.411 116.787V80.537C514.411 78.62 515.096 77.046 516.465 75.814C517.903 74.513 519.581 73.862 521.498 73.862C525.607 74.205 527.867 76.43 528.278 80.537V116.787C528.346 118.43 528.689 119.799 529.305 120.895C529.921 122.059 530.606 122.983 531.359 123.667C532.113 124.284 532.866 124.763 533.619 125.105C534.441 125.379 535.263 125.516 536.084 125.516C536.906 125.516 537.728 125.379 538.55 125.105C539.371 124.763 540.159 124.284 540.912 123.667C541.665 122.983 542.35 122.093 542.966 120.998C543.583 119.834 543.891 118.43 543.891 116.787V80.537C543.891 78.62 544.576 77.046 545.945 75.814C547.383 74.513 549.061 73.862 550.978 73.862C555.087 74.205 557.347 76.43 557.758 80.537V117.609C557.758 121.306 556.936 124.489 555.293 127.159C553.718 129.829 551.869 131.985 549.746 133.629C547.691 135.203 545.5 136.401 543.172 137.223C540.912 138.044 538.584 138.455 536.187 138.455C533.859 138.455 531.531 138.044 529.202 137.223C526.943 136.401 524.751 135.169 522.628 133.526C522.217 133.252 521.841 132.944 521.498 132.602C521.088 132.944 520.711 133.252 520.369 133.526C518.246 135.169 516.02 136.401 513.692 137.223C511.432 138.044 509.104 138.455 506.707 138.455Z" fill="black"/>
<path d="M594.325 120.176C594.325 118.259 594.976 116.65 596.277 115.35C597.647 113.98 599.29 113.296 601.207 113.296H616.923L614.253 105.697C613.157 102.89 612.061 100.254 610.966 97.789C609.938 95.256 608.74 92.963 607.371 90.909C606.138 88.855 604.734 87.76 603.159 87.623C601.516 87.76 600.043 88.855 598.742 90.909C597.441 92.963 596.243 95.256 595.147 97.789C594.12 100.254 593.059 102.89 591.963 105.697L582.205 132.396C581.52 133.834 580.63 135.032 579.534 135.99C578.507 136.88 576.932 137.325 574.809 137.325C572.823 137.325 571.18 136.641 569.879 135.272C568.646 133.902 568.098 132.259 568.235 130.342C568.304 129.452 568.509 128.631 568.851 127.878L580.15 98.714C583.3 91.046 586.45 84.85 589.6 80.127C592.682 75.471 597.201 73.109 603.159 73.041C609.048 73.109 613.534 75.471 616.615 80.127C619.765 84.713 622.915 90.909 626.065 98.714L637.364 127.878C637.707 128.631 637.912 129.452 637.98 130.342C638.117 132.259 637.535 133.902 636.234 135.272C635.002 136.641 633.392 137.325 631.406 137.325C629.147 137.325 627.469 136.88 626.373 135.99C625.346 135.032 624.49 133.834 623.805 132.396L621.854 127.056H601.207C599.29 127.056 597.681 126.372 596.38 125.002C595.01 123.702 594.325 122.093 594.325 120.176Z" fill="black"/>
<path d="M133.355 2.77298C136.848 2.84098 139.963 3.93699 142.702 6.05899C145.442 8.18099 147.633 10.714 149.276 13.658C150.988 16.602 152.255 19.717 153.077 23.003C153.899 26.289 154.31 29.644 154.31 33.067C154.31 37.585 153.591 42.035 152.152 46.417C150.783 50.73 148.489 54.563 145.27 57.918C142.12 61.273 138.149 63.087 133.355 63.361H97.5066C92.7131 63.155 88.7071 61.375 85.4886 58.021C82.2701 54.666 79.9761 50.798 78.6065 46.417C77.3054 42.035 76.6549 37.585 76.6549 33.067C76.6549 28.548 77.3397 24.133 78.7093 19.82C80.0788 15.438 82.3386 11.57 85.4886 8.21597C88.7071 4.79297 92.7131 2.97798 97.5066 2.77298H133.355ZM129.863 49.6C132.465 49.463 134.622 48.505 136.334 46.725C138.114 44.876 139.381 42.754 140.135 40.358C140.888 37.962 141.264 35.531 141.264 33.067C141.264 30.602 140.854 28.206 140.032 25.878C139.279 23.482 138.046 21.36 136.334 19.512C134.622 17.663 132.465 16.671 129.863 16.534H100.691C98.0887 16.671 95.9316 17.663 94.2196 19.512C92.5077 21.36 91.2408 23.482 90.4191 25.878C89.6658 28.206 89.2892 30.602 89.2892 33.067C89.2892 35.531 89.6658 37.962 90.4191 40.358C91.1723 42.754 92.405 44.876 94.1169 46.725C95.8974 48.505 98.0887 49.463 100.691 49.6H129.863Z" fill="black"/>
<path d="M210.085 2.77298C214.879 3.04698 218.816 4.89499 221.898 8.31799C224.979 11.673 227.205 15.507 228.575 19.82C229.944 24.133 230.629 28.548 230.629 33.067C230.629 37.585 229.944 42.001 228.575 46.314C227.273 50.627 225.048 54.495 221.898 57.918C218.816 61.273 214.879 63.087 210.085 63.361H172.285C170.436 63.292 168.861 62.642 167.56 61.409C166.328 60.109 165.677 58.534 165.609 56.686V31.218C165.677 29.301 166.396 27.727 167.766 26.495C169.135 25.194 170.779 24.543 172.696 24.543C174.545 24.612 176.12 25.297 177.421 26.597C178.722 27.83 179.407 29.37 179.475 31.218V46.827C179.475 48.676 180.434 49.6 182.352 49.6H206.593C209.195 49.463 211.352 48.47 213.064 46.622C214.776 44.774 216.009 42.686 216.762 40.358C217.584 37.962 217.995 35.531 217.995 33.067C217.995 30.602 217.584 28.206 216.762 25.878C216.009 23.482 214.776 21.36 213.064 19.512C211.352 17.663 209.195 16.671 206.593 16.534H172.285C168.176 16.191 165.951 13.966 165.609 9.85898C165.609 7.94198 166.225 6.29899 167.457 4.92999C168.759 3.55999 170.368 2.84098 172.285 2.77298H210.085Z" fill="black"/>
<path d="M274.592 0C278.153 0 281.645 0.411002 285.069 1.233C288.562 2.054 291.883 3.28599 295.033 4.92999C298.183 6.50399 300.956 8.62599 303.353 11.296C305.818 13.966 307.154 17.15 307.359 20.847V57.918C306.948 62.026 304.689 64.251 300.58 64.593C298.662 64.593 296.985 63.977 295.547 62.744C294.177 61.444 293.492 59.835 293.492 57.918V24.03C293.355 21.908 292.534 20.162 291.027 18.793C289.589 17.355 287.945 16.226 286.097 15.404C284.316 14.582 282.433 13.966 280.447 13.556C278.53 13.145 276.578 12.939 274.592 12.939C272.606 12.939 270.62 13.145 268.635 13.556C266.717 13.966 264.834 14.582 262.985 15.404C261.205 16.226 259.561 17.355 258.055 18.793C256.617 20.162 255.829 21.908 255.692 24.03V57.918C255.35 62.026 253.124 64.251 249.015 64.593C247.098 64.593 245.42 63.977 243.982 62.744C242.613 61.444 241.928 59.835 241.928 57.918V20.847C242.133 17.15 243.434 13.966 245.831 11.296C248.228 8.62599 251.001 6.50399 254.151 4.92999C257.301 3.28599 260.588 2.054 264.012 1.233C267.505 0.411002 271.031 0 274.592 0Z" fill="black"/>
<path d="M375.461 2.77298C378.953 2.84098 382.069 3.93699 384.808 6.05899C387.548 8.18099 389.739 10.714 391.382 13.658C393.094 16.602 394.361 19.717 395.183 23.003C396.005 26.289 396.416 29.644 396.416 33.067C396.416 37.585 395.697 42.035 394.258 46.417C392.889 50.73 390.595 54.563 387.376 57.918C384.226 61.273 380.255 63.087 375.461 63.361H339.613C334.819 63.155 330.813 61.375 327.595 58.021C324.376 54.666 322.082 50.798 320.712 46.417C319.411 42.035 318.761 37.585 318.761 33.067C318.761 28.548 319.446 24.133 320.815 19.82C322.185 15.438 324.445 11.57 327.595 8.21597C330.813 4.79297 334.819 2.97798 339.613 2.77298H375.461ZM371.969 49.6C374.571 49.463 376.728 48.505 378.44 46.725C380.22 44.876 381.487 42.754 382.24 40.358C382.994 37.962 383.37 35.531 383.37 33.067C383.37 30.602 382.959 28.206 382.138 25.878C381.384 23.482 380.152 21.36 378.44 19.512C376.728 17.663 374.571 16.671 371.969 16.534H342.797C340.195 16.671 338.038 17.663 336.326 19.512C334.614 21.36 333.347 23.482 332.525 25.878C331.772 28.206 331.395 30.602 331.395 33.067C331.395 35.531 331.772 37.962 332.525 40.358C333.278 42.754 334.511 44.876 336.223 46.725C338.003 48.505 340.195 49.463 342.797 49.6H371.969Z" fill="black"/>
<path d="M429.388 65.722C427.06 65.722 424.731 65.312 422.403 64.49C420.143 63.669 417.952 62.471 415.829 60.896C413.706 59.253 411.857 57.096 410.282 54.426C408.707 51.757 407.851 48.573 407.715 44.876V7.80499C407.715 5.88799 408.399 4.31299 409.769 3.08099C411.207 1.77999 412.885 1.12997 414.802 1.12997C418.911 1.47197 421.136 3.69699 421.479 7.80499V44.055C421.547 45.698 421.89 47.101 422.506 48.265C423.122 49.36 423.807 50.25 424.56 50.935C425.313 51.551 426.067 52.03 426.82 52.373C427.642 52.647 428.464 52.783 429.285 52.783C430.107 52.783 430.929 52.647 431.75 52.373C432.572 52.03 433.36 51.551 434.113 50.935C434.866 50.25 435.551 49.36 436.167 48.265C436.784 47.101 437.092 45.698 437.092 44.055V7.80499C437.092 5.88799 437.777 4.31299 439.146 3.08099C440.584 1.77999 442.262 1.12997 444.179 1.12997C448.288 1.47197 450.548 3.69699 450.959 7.80499V44.055C451.027 45.698 451.37 47.067 451.986 48.162C452.602 49.326 453.287 50.25 454.04 50.935C454.794 51.551 455.547 52.03 456.3 52.373C457.122 52.647 457.944 52.783 458.765 52.783C459.587 52.783 460.409 52.647 461.23 52.373C462.052 52.03 462.84 51.551 463.593 50.935C464.346 50.25 465.031 49.36 465.647 48.265C466.264 47.101 466.572 45.698 466.572 44.055V7.80499C466.572 5.88799 467.257 4.31299 468.626 3.08099C470.064 1.77999 471.742 1.12997 473.659 1.12997C477.768 1.47197 480.028 3.69699 480.439 7.80499V44.876C480.439 48.573 479.617 51.757 477.974 54.426C476.398 57.096 474.55 59.253 472.427 60.896C470.372 62.471 468.181 63.669 465.853 64.49C463.593 65.312 461.265 65.722 458.868 65.722C456.54 65.722 454.211 65.312 451.883 64.49C449.623 63.669 447.432 62.436 445.309 60.793C444.898 60.52 444.522 60.211 444.179 59.869C443.768 60.211 443.392 60.52 443.049 60.793C440.927 62.436 438.701 63.669 436.373 64.49C434.113 65.312 431.785 65.722 429.388 65.722Z" fill="black"/>
<path d="M517.006 47.443C517.006 45.527 517.657 43.918 518.958 42.617C520.327 41.248 521.971 40.563 523.888 40.563H539.604L536.934 32.964C535.838 30.157 534.742 27.521 533.647 25.057C532.619 22.524 531.421 20.23 530.051 18.177C528.819 16.123 527.415 15.027 525.84 14.891C524.197 15.027 522.724 16.123 521.423 18.177C520.122 20.23 518.924 22.524 517.828 25.057C516.801 27.521 515.739 30.157 514.644 32.964L504.886 59.664C504.201 61.101 503.311 62.299 502.215 63.258C501.188 64.148 499.613 64.593 497.49 64.593C495.504 64.593 493.861 63.908 492.559 62.539C491.327 61.17 490.779 59.527 490.916 57.61C490.984 56.72 491.19 55.898 491.532 55.145L502.831 25.981C505.981 18.314 509.131 12.118 512.281 7.39398C515.363 2.73898 519.882 0.376983 525.84 0.307983C531.729 0.376983 536.214 2.73898 539.296 7.39398C542.446 11.981 545.596 18.177 548.746 25.981L560.045 55.145C560.387 55.898 560.593 56.72 560.661 57.61C560.798 59.527 560.216 61.17 558.915 62.539C557.683 63.908 556.073 64.593 554.087 64.593C551.828 64.593 550.15 64.148 549.054 63.258C548.027 62.299 547.171 61.101 546.486 59.664L544.535 54.324H523.888C521.971 54.324 520.362 53.639 519.061 52.27C517.691 50.969 517.006 49.36 517.006 47.443Z" fill="black"/>
</svg>
