<svg xmlns="http://www.w3.org/2000/svg" viewBox="0 0 16 16" fill="#000000" id="Instagram-Logo-Fill--Streamline-Phosphor-Fill" height="16" width="16"><desc>Instagram Logo Fill Streamline Icon: https://streamlinehq.com</desc><path d="M11.6184625 0.16H4.3815375C2.05108125 0.16249375 0.16249375 2.05108125 0.16 4.3815375v7.236925c0.00249375 2.33045625 1.89108125 4.21904375 4.2215375 4.2215375h7.236925c2.33045625 -0.00249375 4.21904375 -1.89108125 4.2215375 -4.2215375V4.3815375c-0.00249375 -2.33045625 -1.89108125 -4.21904375 -4.2215375 -4.2215375ZM8 11.6184625c-2.78549375 0.000125 -4.5264 -3.01518125 -3.1337625 -5.42755625 1.39264375 -2.41236875 4.87450625 -2.412525 6.2673625 -0.000275 0.3176375 0.55010625 0.4848625 1.17414375 0.4848625 1.80936875 -0.00208125 1.9975625 -1.6209 3.61638125 -3.6184625 3.6184625Zm4.523075 -7.236925c-0.69636875 0.00003125 -1.1316 -0.75379375 -0.7834375 -1.3568875 0.34815625 -0.60309375 1.218625 -0.60313125 1.5668375 -0.00006875 0.0794125 0.137525 0.12121875 0.29353125 0.12121875 0.45234375 0 0.4995875 -0.405025 0.90459375 -0.90461875 0.9046125ZM10.41230625 8c0 1.85699375 -2.01025625 3.01761875 -3.6184625 2.08911875 -1.6082 -0.9285 -1.6082 -3.24974375 0 -4.1782375 0.36671875 -0.211725 0.78270625 -0.3231875 1.20615625 -0.3231875 1.33228125 0 2.41230625 1.080025 2.41230625 2.41230625Z" stroke-width="0.0625"></path></svg>