<svg width="638" height="446" viewBox="0 0 638 446" fill="none" xmlns="http://www.w3.org/2000/svg">
<path d="M382 8.32007H417.5L439.5 26.5L459.5 56.5V92L488.5 111V140.5L467 160.5L444.5 215L414.5 226.5H312L320.5 182.5V133.5L352 72.5L382 8.32007Z" fill="white"/>
<path d="M192.312 219.512L223.867 228.427L205.117 270.032L188.653 272.09L176.534 260.431L192.312 219.512Z" fill="#0ABDE3"/>
<path d="M442.998 219.512L411.443 228.427L430.193 270.032L446.657 272.09L458.776 260.431L442.998 219.512Z" fill="white"/>
<path d="M284.731 8.74555C285.156 8.4709 285.652 8.3248 286.158 8.3248H424.867C425.842 8.3248 426.229 9.58733 425.421 10.1337L385.471 37.137C371.309 46.7095 367.465 65.88 376.843 80.1697C383.28 89.9775 382.263 102.897 374.372 111.578L354.743 133.173C354.563 133.371 354.307 133.484 354.039 133.484H285.645C285.47 133.484 285.296 133.502 285.125 133.536L221.531 146.369C220.338 146.61 219.136 146.001 218.624 144.897L186.26 75.0407C185.709 73.8517 186.118 72.4387 187.219 71.7277L284.731 8.74555Z" fill="#9DE4F3"/>
<path d="M208.103 8.99187C208.585 8.56224 209.208 8.3248 209.854 8.3248H307.184C308.04 8.3248 308.658 9.1425 308.425 9.96545L301.805 33.3217C297.012 50.2334 283.097 63.0024 265.833 66.331C245.387 70.2733 228.761 85.129 222.555 105.001L216.416 137.14C216.125 138.073 213.06 131.817 212.415 131.082L176.041 91.8583C175.642 91.4047 174.287 89.9167 174.019 89.1203C173.963 88.9547 173.962 88.7768 173.939 88.6036L171.271 68.5245V54.6424L177.713 37.4589C177.825 37.1622 177.874 36.8466 177.945 36.5378C178.065 36.0094 178.348 35.527 178.758 35.1611L208.103 8.99187Z" fill="#0ABDE3"/>
<path d="M214.61 143.09C215.096 144.046 216.114 144.611 217.182 144.517L337.791 135.34C338.762 135.266 339.333 136.408 338.692 137.14C327.925 152.159 324.958 162.988 330.803 180.517C334.776 192.432 331.227 205.435 323.051 214.971L315.025 224.332C314.712 224.765 311.175 226.466 310.643 226.522L306.37 227.351C306.205 227.382 306.038 227.399 305.87 227.399H245.803L206.442 223.596C205.888 223.542 205.365 223.314 204.949 222.945L183.753 204.125C183.39 203.802 183.123 203.386 182.983 202.921L175.77 179.095C175.696 178.848 175.658 178.591 175.658 178.333V138.561C175.658 138.074 175.793 137.596 176.049 137.181L193.077 109.579C194.155 107.833 196.729 107.939 197.659 109.768L214.61 143.09Z" fill="#9DE4F3"/>
<path d="M163.203 98.4036C163.441 98.2371 163.646 98.028 163.862 97.8335C164.502 97.2563 165.395 97.0231 166.25 97.2331L193.751 103.987C194.506 104.172 195.14 104.681 195.483 105.378L209.663 134.148C209.76 134.345 209.671 134.583 209.469 134.667C195.245 140.6 187.601 156.135 191.582 171.02L192.662 175.062C194.149 180.62 193.964 186.492 192.13 191.946L186.026 210.103C185.593 211.39 183.762 211.36 183.372 210.06L169.832 164.945C169.691 164.474 169.42 164.051 169.05 163.726L151.949 148.7C151.6 148.393 151.338 148 151.191 147.56L143.679 125.139C143.447 124.445 143.516 123.692 143.857 123.059C144.003 122.788 144.168 122.524 144.277 122.236L149.753 107.808L163.203 98.4036Z" fill="#0ABDE3"/>
<path d="M234.249 0C194.46 0 161.915 32.3531 161.915 72.1877V88.864C145.201 93.0901 132.708 108.367 132.708 126.328C132.708 142.519 143.147 155.855 157.352 161.509L175.606 208.568C177.375 214.05 180.427 218.391 184.049 221.817L171.271 247.631C166.165 257.825 170.215 270.39 180.398 275.501C183.336 276.986 186.616 277.786 189.753 277.786C197.369 277.786 204.842 273.588 208.464 266.363L224.437 233.925H251.74C255.777 233.925 259.051 230.652 259.051 226.615C259.051 222.577 255.777 219.304 251.74 219.304H237.803H307.943H297.057C293.257 219.304 289.606 222.815 289.606 226.615C289.606 230.393 293.277 233.896 297.057 233.925H405.746L421.586 266.363C425.209 273.588 432.682 277.786 440.297 277.786C443.435 277.786 446.715 276.986 449.653 275.501C459.835 270.39 463.885 257.825 458.78 247.631L446.002 221.817C449.624 218.391 452.676 214.05 454.444 208.568L472.699 161.509C486.903 155.855 497.343 142.519 497.343 126.328C497.343 108.367 484.85 93.0901 468.135 88.864V72.1877C468.135 32.3531 435.591 0 395.802 0H234.249ZM234.249 14.6203H344.954C348.992 14.6203 352.265 11.3474 352.265 7.31015C352.265 3.27286 348.992 0 344.954 0H315.938H395.802H389.734C385.696 0 382.423 3.27286 382.423 7.31015C382.423 11.3474 385.696 14.6203 389.734 14.6203H395.802C427.69 14.6203 453.532 40.2629 453.532 72.1877V88.1786C439.613 90.1489 427.918 99.6293 422.955 112.393L411.09 139.578C410.12 139.264 409.55 139.036 408.352 138.664C402.847 137.008 395.06 134.838 385.762 132.725C367.136 128.499 342.208 124.272 315.938 124.272C289.669 124.272 264.255 128.47 245.202 132.725C235.675 134.838 227.603 136.98 221.927 138.664C220.644 139.036 219.988 139.264 218.961 139.578L207.78 114.449C203.33 100.657 191.151 90.2632 176.519 88.1786V72.1877C176.519 40.2629 202.361 14.6203 234.249 14.6203ZM171.271 102.342C182.138 102.342 191.408 110.452 194.317 120.389L208.464 151.686L211.887 159.224L214.041 158.074C220.567 154.589 227.49 151.9 234.676 150.14C239.234 149.024 244.399 147.783 248.396 146.888C266.736 142.805 291.237 138.893 315.938 138.893C340.639 138.893 364.683 142.833 382.567 146.888C386.859 147.863 392.587 149.326 397.379 150.582C403.546 152.199 409.497 154.529 415.164 157.449L418.164 158.996L421.586 151.457L436.418 118.333C439.812 109.252 448.483 102.342 458.78 102.342C472.043 102.342 482.739 113.05 482.739 126.328C482.739 137.351 475.266 146.374 465.169 149.173L461.518 150.086L460.377 153.513L440.982 203.313C438.842 210.766 432.311 215.078 425.237 217.248C419.162 219.133 414.341 219.304 412.915 219.304H237.803H217.363C216.166 219.304 211.088 219.19 204.813 217.248C197.74 215.078 191.208 210.538 189.069 203.085L169.673 153.513L168.533 150.086L164.882 149.173C154.756 146.374 147.312 137.351 147.312 126.328C147.312 113.05 158.008 102.342 171.271 102.342ZM196.599 229.584C197.882 230.098 199.252 230.812 200.478 231.183C203.416 232.097 206.154 232.611 208.693 233.011L195.23 259.739C194.117 261.966 192.035 263.165 189.753 263.165C188.841 263.165 187.928 262.937 187.015 262.48C183.878 260.909 182.708 257.397 184.277 254.256L196.599 229.584ZM433.452 229.584L445.774 254.256C447.342 257.397 446.173 260.909 443.035 262.48C442.123 262.937 441.21 263.165 440.297 263.165C438.015 263.165 435.933 261.994 434.821 259.739L421.358 233.011C423.897 232.611 426.635 232.097 429.573 231.183C430.799 230.812 432.168 230.098 433.452 229.584Z" fill="black"/>
<path d="M7.08753 381.407C8.93645 381.476 10.5115 382.161 11.8126 383.461C13.1136 384.694 13.7984 386.234 13.8669 388.082V438.401C13.456 442.508 11.1962 444.733 7.08753 445.076C5.17013 445.076 3.49241 444.46 2.05436 443.227C0.684786 441.927 0 440.318 0 438.401V388.082C0.0684786 386.165 0.787503 384.591 2.15707 383.359C3.52665 382.058 5.17013 381.407 7.08753 381.407ZM24.6523 399.481C29.2403 396.4 35.4377 393.285 43.2442 390.136L60.0899 382.948C60.8432 382.605 61.6649 382.4 62.5552 382.332C64.4726 382.195 66.1161 382.777 67.4856 384.077C68.8552 385.31 69.54 386.919 69.54 388.904C69.54 391.163 69.0606 392.84 68.1019 393.936C67.2117 394.963 66.0476 395.818 64.6095 396.503L50.229 401.946C47.4214 403.041 44.7507 404.136 42.217 405.232C39.7518 406.259 37.492 407.457 35.4377 408.826C33.3833 410.058 32.2876 411.462 32.1507 413.036C32.2876 414.542 33.3833 415.946 35.4377 417.247C37.492 418.616 39.7518 419.848 42.217 420.943C44.7507 421.97 47.4214 423.031 50.229 424.127L66.253 429.98C67.6911 430.665 68.8552 431.555 69.7454 432.65C70.7041 433.677 71.1835 435.32 71.1835 437.579C71.1835 439.565 70.4987 441.208 69.1291 442.509C67.7595 443.741 66.116 444.288 64.1986 444.152C63.3084 444.083 62.4867 443.878 61.7334 443.535L43.2442 435.936C35.4377 432.787 29.2061 429.672 24.5496 426.591C19.9615 423.442 17.6332 418.924 17.5648 413.036C17.6332 407.149 19.9957 402.63 24.6523 399.481Z" fill="black"/>
<path d="M104.669 427.721C104.669 425.804 105.32 424.195 106.621 422.895C107.991 421.525 109.634 420.841 111.552 420.841H127.267L124.597 413.242C123.501 410.435 122.405 407.799 121.31 405.334C120.283 402.801 119.084 400.508 117.715 398.454C116.482 396.4 115.078 395.305 113.503 395.168C111.86 395.305 110.387 396.4 109.086 398.454C107.785 400.508 106.587 402.801 105.491 405.334C104.464 407.799 103.403 410.435 102.307 413.242L92.5488 439.941C91.864 441.379 90.9738 442.577 89.8781 443.535C88.8509 444.425 87.2759 444.87 85.1531 444.87C83.1672 444.87 81.5237 444.186 80.2226 442.817C78.99 441.447 78.4422 439.804 78.5791 437.887C78.6476 436.997 78.8531 436.176 79.1954 435.423L90.4944 406.259C93.6444 398.591 96.7944 392.395 99.9445 387.672C103.026 383.016 107.546 380.654 113.503 380.586C119.392 380.654 123.878 383.016 126.959 387.672C130.109 392.258 133.259 398.454 136.409 406.259L147.708 435.423C148.051 436.176 148.256 436.997 148.325 437.887C148.462 439.804 147.879 441.447 146.578 442.817C145.346 444.186 143.736 444.87 141.751 444.87C139.491 444.87 137.813 444.425 136.717 443.535C135.69 442.577 134.834 441.379 134.149 439.941L132.198 434.601H111.552C109.634 434.601 108.025 433.917 106.724 432.547C105.354 431.247 104.669 429.638 104.669 427.721Z" fill="black"/>
<path d="M191.363 380.278C194.924 380.278 198.417 380.689 201.841 381.51C205.333 382.332 208.654 383.564 211.804 385.207C214.954 386.782 217.728 388.904 220.124 391.574C222.59 394.244 223.925 397.427 224.13 401.124V438.195C223.719 442.303 221.46 444.528 217.351 444.87C215.434 444.87 213.756 444.254 212.318 443.022C210.948 441.721 210.263 440.112 210.263 438.195V404.308C210.126 402.185 209.305 400.439 207.798 399.07C206.36 397.633 204.717 396.503 202.868 395.681C201.087 394.86 199.204 394.244 197.218 393.833C195.301 393.422 193.349 393.217 191.363 393.217C189.377 393.217 187.392 393.422 185.406 393.833C183.488 394.244 181.605 394.86 179.756 395.681C177.976 396.503 176.332 397.633 174.826 399.07C173.388 400.439 172.6 402.185 172.463 404.308V438.195C172.121 442.303 169.895 444.528 165.787 444.87C163.869 444.87 162.191 444.254 160.753 443.022C159.384 441.721 158.699 440.112 158.699 438.195V401.124C158.904 397.427 160.206 394.244 162.602 391.574C164.999 388.904 167.772 386.782 170.922 385.207C174.072 383.564 177.359 382.332 180.783 381.51C184.276 380.689 187.802 380.278 191.363 380.278Z" fill="black"/>
<path d="M260.184 427.721C260.184 425.804 260.835 424.195 262.136 422.895C263.505 421.525 265.149 420.841 267.066 420.841H282.782L280.112 413.242C279.016 410.435 277.92 407.799 276.825 405.334C275.797 402.801 274.599 400.508 273.229 398.454C271.997 396.4 270.593 395.305 269.018 395.168C267.375 395.305 265.902 396.4 264.601 398.454C263.3 400.508 262.102 402.801 261.006 405.334C259.979 407.799 258.917 410.435 257.822 413.242L248.064 439.941C247.379 441.379 246.489 442.577 245.393 443.535C244.366 444.425 242.791 444.87 240.668 444.87C238.682 444.87 237.039 444.186 235.737 442.817C234.505 441.447 233.957 439.804 234.094 437.887C234.162 436.997 234.368 436.176 234.71 435.423L246.009 406.259C249.159 398.591 252.309 392.395 255.459 387.672C258.541 383.016 263.06 380.654 269.018 380.586C274.907 380.654 279.393 383.016 282.474 387.672C285.624 392.258 288.774 398.454 291.924 406.259L303.223 435.423C303.565 436.176 303.771 436.997 303.839 437.887C303.976 439.804 303.394 441.447 302.093 442.817C300.861 444.186 299.251 444.87 297.265 444.87C295.006 444.87 293.328 444.425 292.232 443.535C291.205 442.577 290.349 441.379 289.664 439.941L287.713 434.601H267.066C265.149 434.601 263.54 433.917 262.239 432.547C260.869 431.247 260.184 429.638 260.184 427.721Z" fill="black"/>
<path d="M327.978 438.195C327.567 442.303 325.307 444.528 321.199 444.87C319.281 444.87 317.604 444.254 316.165 443.022C314.796 441.721 314.111 440.112 314.111 438.195V389.725C314.18 387.809 314.899 386.234 316.268 385.002C317.638 383.701 319.281 383.05 321.199 383.05H364.34C370.366 383.256 374.92 384.591 378.002 387.055C381.083 389.452 383.309 392.19 384.678 395.271C386.048 398.351 386.733 401.466 386.733 404.616C386.733 407.902 386.048 411.085 384.678 414.166C383.377 417.247 381.152 420.019 378.002 422.484C374.92 424.88 370.983 426.044 366.189 425.975H340.304C338.387 425.975 336.778 425.291 335.476 423.921C334.107 422.621 333.422 421.012 333.422 419.095C333.422 417.178 334.073 415.569 335.374 414.269C336.743 412.899 338.387 412.215 340.304 412.215H366.805C368.107 412.215 369.168 411.804 369.99 410.982C370.88 410.092 371.53 409.1 371.941 408.004C372.352 406.841 372.558 405.677 372.558 404.513C372.558 403.418 372.352 402.322 371.941 401.227C371.53 400.063 370.88 399.07 369.99 398.249C369.168 397.359 368.107 396.88 366.805 396.811H330.649C328.868 396.88 327.978 397.77 327.978 399.481V438.195Z" fill="black"/>
<path d="M452.78 383.05C456.273 383.119 459.388 384.214 462.128 386.337C464.867 388.459 467.058 390.992 468.702 393.936C470.413 396.88 471.68 399.994 472.502 403.281C473.324 406.567 473.735 409.921 473.735 413.344C473.735 417.863 473.016 422.313 471.578 426.694C470.208 431.007 467.914 434.841 464.695 438.195C461.545 441.55 457.574 443.364 452.78 443.638H416.932C412.138 443.433 408.132 441.653 404.914 438.298C401.695 434.944 399.401 431.076 398.032 426.694C396.731 422.313 396.08 417.863 396.08 413.344C396.08 408.826 396.765 404.41 398.134 400.097C399.504 395.716 401.764 391.848 404.914 388.493C408.132 385.07 412.138 383.256 416.932 383.05H452.78ZM449.288 429.878C451.89 429.741 454.047 428.782 455.759 427.002C457.539 425.154 458.806 423.031 459.56 420.635C460.313 418.239 460.69 415.809 460.69 413.344C460.69 410.88 460.279 408.484 459.457 406.156C458.704 403.76 457.471 401.638 455.759 399.789C454.047 397.941 451.89 396.948 449.288 396.811H420.116C417.514 396.948 415.357 397.941 413.645 399.789C411.933 401.638 410.666 403.76 409.844 406.156C409.091 408.484 408.714 410.88 408.714 413.344C408.714 415.809 409.091 418.239 409.844 420.635C410.597 423.031 411.83 425.154 413.542 427.002C415.322 428.782 417.514 429.741 420.116 429.878H449.288Z" fill="black"/>
<path d="M506.707 446C504.379 446 502.051 445.589 499.722 444.768C497.462 443.946 495.271 442.748 493.148 441.174C491.026 439.53 489.177 437.374 487.602 434.704C486.027 432.034 485.171 428.851 485.034 425.154V388.082C485.034 386.165 485.718 384.591 487.088 383.359C488.526 382.058 490.204 381.407 492.121 381.407C496.23 381.75 498.455 383.975 498.798 388.082V424.332C498.866 425.975 499.209 427.379 499.825 428.543C500.441 429.638 501.126 430.528 501.879 431.212C502.633 431.829 503.386 432.308 504.139 432.65C504.961 432.924 505.783 433.061 506.604 433.061C507.426 433.061 508.248 432.924 509.07 432.65C509.891 432.308 510.679 431.829 511.432 431.212C512.185 430.528 512.87 429.638 513.486 428.543C514.103 427.379 514.411 425.975 514.411 424.332V388.082C514.411 386.165 515.096 384.591 516.465 383.359C517.903 382.058 519.581 381.407 521.498 381.407C525.607 381.75 527.867 383.975 528.278 388.082V424.332C528.346 425.975 528.689 427.344 529.305 428.44C529.921 429.604 530.606 430.528 531.359 431.212C532.113 431.829 532.866 432.308 533.619 432.65C534.441 432.924 535.263 433.061 536.084 433.061C536.906 433.061 537.728 432.924 538.55 432.65C539.371 432.308 540.159 431.829 540.912 431.212C541.665 430.528 542.35 429.638 542.966 428.543C543.583 427.379 543.891 425.975 543.891 424.332V388.082C543.891 386.165 544.576 384.591 545.945 383.359C547.383 382.058 549.061 381.407 550.978 381.407C555.087 381.75 557.347 383.975 557.758 388.082V425.154C557.758 428.851 556.936 432.034 555.293 434.704C553.718 437.374 551.869 439.53 549.746 441.174C547.691 442.748 545.5 443.946 543.172 444.768C540.912 445.589 538.584 446 536.187 446C533.859 446 531.531 445.589 529.202 444.768C526.943 443.946 524.751 442.714 522.628 441.071C522.217 440.797 521.841 440.489 521.498 440.147C521.088 440.489 520.711 440.797 520.369 441.071C518.246 442.714 516.02 443.946 513.692 444.768C511.432 445.589 509.104 446 506.707 446Z" fill="black"/>
<path d="M594.325 427.721C594.325 425.804 594.976 424.195 596.277 422.895C597.647 421.525 599.29 420.841 601.207 420.841H616.923L614.253 413.242C613.157 410.435 612.061 407.799 610.966 405.334C609.938 402.801 608.74 400.508 607.371 398.454C606.138 396.4 604.734 395.305 603.159 395.168C601.516 395.305 600.043 396.4 598.742 398.454C597.441 400.508 596.243 402.801 595.147 405.334C594.12 407.799 593.059 410.435 591.963 413.242L582.205 439.941C581.52 441.379 580.63 442.577 579.534 443.535C578.507 444.425 576.932 444.87 574.809 444.87C572.823 444.87 571.18 444.186 569.879 442.817C568.646 441.447 568.098 439.804 568.235 437.887C568.304 436.997 568.509 436.176 568.851 435.423L580.15 406.259C583.3 398.591 586.45 392.395 589.6 387.672C592.682 383.016 597.201 380.654 603.159 380.586C609.048 380.654 613.534 383.016 616.615 387.672C619.765 392.258 622.915 398.454 626.065 406.259L637.364 435.423C637.707 436.176 637.912 436.997 637.98 437.887C638.117 439.804 637.535 441.447 636.234 442.817C635.002 444.186 633.392 444.87 631.406 444.87C629.147 444.87 627.469 444.425 626.373 443.535C625.346 442.577 624.49 441.379 623.805 439.941L621.854 434.601H601.207C599.29 434.601 597.681 433.917 596.38 432.547C595.01 431.247 594.325 429.638 594.325 427.721Z" fill="black"/>
<path d="M133.355 310.318C136.848 310.386 139.963 311.482 142.702 313.604C145.442 315.726 147.633 318.259 149.276 321.203C150.988 324.147 152.255 327.262 153.077 330.548C153.899 333.834 154.31 337.189 154.31 340.612C154.31 345.13 153.591 349.58 152.152 353.962C150.783 358.275 148.489 362.108 145.27 365.463C142.12 368.818 138.149 370.632 133.355 370.906H97.5066C92.7131 370.7 88.7071 368.92 85.4886 365.566C82.2701 362.211 79.9761 358.343 78.6065 353.962C77.3054 349.58 76.6549 345.13 76.6549 340.612C76.6549 336.093 77.3397 331.678 78.7093 327.365C80.0788 322.983 82.3386 319.115 85.4886 315.761C88.7071 312.338 92.7131 310.523 97.5066 310.318H133.355ZM129.863 357.145C132.465 357.008 134.622 356.05 136.334 354.27C138.114 352.421 139.381 350.299 140.135 347.903C140.888 345.507 141.264 343.076 141.264 340.612C141.264 338.147 140.854 335.751 140.032 333.423C139.279 331.027 138.046 328.905 136.334 327.057C134.622 325.208 132.465 324.216 129.863 324.079H100.691C98.0887 324.216 95.9316 325.208 94.2196 327.057C92.5077 328.905 91.2408 331.027 90.4191 333.423C89.6658 335.751 89.2892 338.147 89.2892 340.612C89.2892 343.076 89.6658 345.507 90.4191 347.903C91.1723 350.299 92.405 352.421 94.1169 354.27C95.8974 356.05 98.0887 357.008 100.691 357.145H129.863Z" fill="black"/>
<path d="M210.085 310.318C214.879 310.592 218.816 312.44 221.898 315.863C224.979 319.218 227.205 323.052 228.575 327.365C229.944 331.678 230.629 336.093 230.629 340.612C230.629 345.13 229.944 349.546 228.575 353.859C227.273 358.172 225.048 362.04 221.898 365.463C218.816 368.818 214.879 370.632 210.085 370.906H172.285C170.436 370.837 168.861 370.187 167.56 368.954C166.328 367.654 165.677 366.079 165.609 364.231V338.763C165.677 336.846 166.396 335.272 167.766 334.04C169.135 332.739 170.779 332.088 172.696 332.088C174.545 332.157 176.12 332.842 177.421 334.142C178.722 335.375 179.407 336.915 179.475 338.763V354.372C179.475 356.221 180.434 357.145 182.352 357.145H206.593C209.195 357.008 211.352 356.015 213.064 354.167C214.776 352.319 216.009 350.231 216.762 347.903C217.584 345.507 217.995 343.076 217.995 340.612C217.995 338.147 217.584 335.751 216.762 333.423C216.009 331.027 214.776 328.905 213.064 327.057C211.352 325.208 209.195 324.216 206.593 324.079H172.285C168.176 323.736 165.951 321.511 165.609 317.404C165.609 315.487 166.225 313.844 167.457 312.475C168.759 311.105 170.368 310.386 172.285 310.318H210.085Z" fill="black"/>
<path d="M274.592 307.545C278.153 307.545 281.645 307.956 285.069 308.778C288.562 309.599 291.883 310.831 295.033 312.475C298.183 314.049 300.956 316.171 303.353 318.841C305.818 321.511 307.154 324.695 307.359 328.392V365.463C306.948 369.571 304.689 371.796 300.58 372.138C298.662 372.138 296.985 371.522 295.547 370.289C294.177 368.989 293.492 367.38 293.492 365.463V331.575C293.355 329.453 292.534 327.707 291.027 326.338C289.589 324.9 287.945 323.771 286.097 322.949C284.316 322.127 282.433 321.511 280.447 321.101C278.53 320.69 276.578 320.484 274.592 320.484C272.606 320.484 270.62 320.69 268.635 321.101C266.717 321.511 264.834 322.127 262.985 322.949C261.205 323.771 259.561 324.9 258.055 326.338C256.617 327.707 255.829 329.453 255.692 331.575V365.463C255.35 369.571 253.124 371.796 249.015 372.138C247.098 372.138 245.42 371.522 243.982 370.289C242.613 368.989 241.928 367.38 241.928 365.463V328.392C242.133 324.695 243.434 321.511 245.831 318.841C248.228 316.171 251.001 314.049 254.151 312.475C257.301 310.831 260.588 309.599 264.012 308.778C267.505 307.956 271.031 307.545 274.592 307.545Z" fill="black"/>
<path d="M375.461 310.318C378.953 310.386 382.069 311.482 384.808 313.604C387.548 315.726 389.739 318.259 391.382 321.203C393.094 324.147 394.361 327.262 395.183 330.548C396.005 333.834 396.416 337.189 396.416 340.612C396.416 345.13 395.697 349.58 394.258 353.962C392.889 358.275 390.595 362.108 387.376 365.463C384.226 368.818 380.255 370.632 375.461 370.906H339.613C334.819 370.7 330.813 368.92 327.595 365.566C324.376 362.211 322.082 358.343 320.712 353.962C319.411 349.58 318.761 345.13 318.761 340.612C318.761 336.093 319.446 331.678 320.815 327.365C322.185 322.983 324.445 319.115 327.595 315.761C330.813 312.338 334.819 310.523 339.613 310.318H375.461ZM371.969 357.145C374.571 357.008 376.728 356.05 378.44 354.27C380.22 352.421 381.487 350.299 382.24 347.903C382.994 345.507 383.37 343.076 383.37 340.612C383.37 338.147 382.959 335.751 382.138 333.423C381.384 331.027 380.152 328.905 378.44 327.057C376.728 325.208 374.571 324.216 371.969 324.079H342.797C340.195 324.216 338.038 325.208 336.326 327.057C334.614 328.905 333.347 331.027 332.525 333.423C331.772 335.751 331.395 338.147 331.395 340.612C331.395 343.076 331.772 345.507 332.525 347.903C333.278 350.299 334.511 352.421 336.223 354.27C338.003 356.05 340.195 357.008 342.797 357.145H371.969Z" fill="black"/>
<path d="M429.388 373.267C427.06 373.267 424.731 372.857 422.403 372.035C420.143 371.214 417.952 370.016 415.829 368.441C413.706 366.798 411.857 364.641 410.282 361.971C408.707 359.302 407.851 356.118 407.715 352.421V315.35C407.715 313.433 408.399 311.858 409.769 310.626C411.207 309.325 412.885 308.675 414.802 308.675C418.911 309.017 421.136 311.242 421.479 315.35V351.6C421.547 353.243 421.89 354.646 422.506 355.81C423.122 356.905 423.807 357.795 424.56 358.48C425.313 359.096 426.067 359.575 426.82 359.918C427.642 360.192 428.464 360.328 429.285 360.328C430.107 360.328 430.929 360.192 431.75 359.918C432.572 359.575 433.36 359.096 434.113 358.48C434.866 357.795 435.551 356.905 436.167 355.81C436.784 354.646 437.092 353.243 437.092 351.6V315.35C437.092 313.433 437.777 311.858 439.146 310.626C440.584 309.325 442.262 308.675 444.179 308.675C448.288 309.017 450.548 311.242 450.959 315.35V351.6C451.027 353.243 451.37 354.612 451.986 355.707C452.602 356.871 453.287 357.795 454.04 358.48C454.794 359.096 455.547 359.575 456.3 359.918C457.122 360.192 457.944 360.328 458.765 360.328C459.587 360.328 460.409 360.192 461.23 359.918C462.052 359.575 462.84 359.096 463.593 358.48C464.346 357.795 465.031 356.905 465.647 355.81C466.264 354.646 466.572 353.243 466.572 351.6V315.35C466.572 313.433 467.257 311.858 468.626 310.626C470.064 309.325 471.742 308.675 473.659 308.675C477.768 309.017 480.028 311.242 480.439 315.35V352.421C480.439 356.118 479.617 359.302 477.974 361.971C476.398 364.641 474.55 366.798 472.427 368.441C470.372 370.016 468.181 371.214 465.853 372.035C463.593 372.857 461.265 373.267 458.868 373.267C456.54 373.267 454.211 372.857 451.883 372.035C449.623 371.214 447.432 369.981 445.309 368.338C444.898 368.065 444.522 367.756 444.179 367.414C443.768 367.756 443.392 368.065 443.049 368.338C440.927 369.981 438.701 371.214 436.373 372.035C434.113 372.857 431.785 373.267 429.388 373.267Z" fill="black"/>
<path d="M517.006 354.988C517.006 353.072 517.657 351.463 518.958 350.162C520.327 348.793 521.971 348.108 523.888 348.108H539.604L536.934 340.509C535.838 337.702 534.742 335.066 533.647 332.602C532.619 330.069 531.421 327.775 530.051 325.722C528.819 323.668 527.415 322.572 525.84 322.436C524.197 322.572 522.724 323.668 521.423 325.722C520.122 327.775 518.924 330.069 517.828 332.602C516.801 335.066 515.739 337.702 514.644 340.509L504.886 367.209C504.201 368.646 503.311 369.844 502.215 370.803C501.188 371.693 499.613 372.138 497.49 372.138C495.504 372.138 493.861 371.453 492.559 370.084C491.327 368.715 490.779 367.072 490.916 365.155C490.984 364.265 491.19 363.443 491.532 362.69L502.831 333.526C505.981 325.859 509.131 319.663 512.281 314.939C515.363 310.284 519.882 307.922 525.84 307.853C531.729 307.922 536.214 310.284 539.296 314.939C542.446 319.526 545.596 325.722 548.746 333.526L560.045 362.69C560.387 363.443 560.593 364.265 560.661 365.155C560.798 367.072 560.216 368.715 558.915 370.084C557.683 371.453 556.073 372.138 554.087 372.138C551.828 372.138 550.15 371.693 549.054 370.803C548.027 369.844 547.171 368.646 546.486 367.209L544.535 361.869H523.888C521.971 361.869 520.362 361.184 519.061 359.815C517.691 358.514 517.006 356.905 517.006 354.988Z" fill="black"/>
</svg>
