<svg width="64" height="64" viewBox="0 0 64 64" fill="none" xmlns="http://www.w3.org/2000/svg">
<circle cx="32" cy="32" r="32" fill="white"/>
<path d="M38.25 14.5833H46.0625L50.75 17.75L52.3125 25.6667L53.875 26.4583L56.2188 29.625L55.4375 32L53.0938 34.375L49.9688 42.2917L49.1875 43.875L50.75 48.625L49.1875 50.2083L44.5 43.875H30.4375L38.25 14.5833Z" fill="white"/>
<path d="M15.1731 43.0284L19.5 44.2479L16.929 49.9393L14.6714 50.2208L13.0096 48.6259L15.1731 43.0284Z" fill="#0ABDE3"/>
<path d="M27.8459 14.1964C27.9042 14.1588 27.9722 14.1388 28.0416 14.1388H47.0618C47.1955 14.1388 47.2486 14.3115 47.1378 14.3862L41.6597 18.0802C39.7178 19.3897 39.1907 22.0121 40.4766 23.9669C41.3593 25.3086 41.2198 27.0759 40.1378 28.2634L37.4462 31.2175C37.4215 31.2446 37.3864 31.2601 37.3497 31.2601H27.9712C27.9472 31.2601 27.9234 31.2625 27.8999 31.2672L19.1797 33.0227C19.0161 33.0557 18.8513 32.9723 18.7811 32.8213L14.3432 23.2653C14.2677 23.1026 14.3238 22.9093 14.4747 22.8121L27.8459 14.1964Z" fill="#9DE4F3"/>
<path d="M17.3384 14.2301C17.4045 14.1713 17.4899 14.1388 17.5785 14.1388H30.9247C31.0421 14.1388 31.1269 14.2507 31.0949 14.3632L30.1872 17.5583C29.5299 19.8717 27.6219 21.6185 25.2546 22.0738C22.4509 22.6131 20.1711 24.6453 19.3201 27.3637L18.4783 31.7602C18.4384 31.8878 18.0181 31.032 17.9297 30.9315L12.942 25.5658C12.8873 25.5038 12.7015 25.3002 12.6647 25.1913C12.657 25.1686 12.6569 25.1443 12.6537 25.1206L12.2879 22.3739V20.4749L13.1712 18.1242C13.1866 18.0836 13.1933 18.0405 13.2031 17.9982C13.2195 17.9259 13.2583 17.8599 13.3145 17.8099L17.3384 14.2301Z" fill="#0ABDE3"/>
<path d="M18.2307 32.5741C18.2973 32.7049 18.4369 32.7822 18.5834 32.7693L35.1217 31.514C35.2548 31.5038 35.3331 31.6601 35.2452 31.7602C33.7688 33.8147 33.362 35.2961 34.1635 37.694C34.7083 39.3239 34.2216 41.1027 33.1005 42.4072L31.9999 43.6877C31.957 43.7469 31.472 43.9796 31.3991 43.9873L30.8131 44.1007C30.7905 44.1049 30.7676 44.1073 30.7446 44.1073H22.508L17.1107 43.587C17.0347 43.5796 16.963 43.5485 16.9059 43.498L13.9995 40.9235C13.9497 40.8793 13.9131 40.8224 13.8939 40.7588L12.9048 37.4995C12.8947 37.4657 12.8895 37.4305 12.8895 37.3952V31.9546C12.8895 31.888 12.908 31.8226 12.9431 31.7658L15.278 27.99C15.4258 27.7511 15.7788 27.7656 15.9063 28.0158L18.2307 32.5741Z" fill="#9DE4F3"/>
<path d="M11.1816 26.4612C11.2142 26.4384 11.2423 26.4098 11.2719 26.3832C11.3597 26.3043 11.4822 26.2724 11.5994 26.3011L15.3704 27.225C15.474 27.2503 15.5609 27.3199 15.6079 27.4153L17.5523 31.3509C17.5656 31.3779 17.5534 31.4104 17.5257 31.4219C15.5753 32.2335 14.5271 34.3586 15.073 36.3948L15.2211 36.9478C15.425 37.7081 15.3996 38.5114 15.1482 39.2574L14.3111 41.7412C14.2518 41.9173 14.0007 41.9132 13.9472 41.7354L12.0906 35.5638C12.0712 35.4994 12.0341 35.4415 11.9833 35.3971L9.63839 33.3416C9.59054 33.2996 9.55461 33.2458 9.53445 33.1856L8.50438 30.1185C8.47257 30.0236 8.48203 29.9206 8.52879 29.834C8.54881 29.7969 8.57144 29.7608 8.58638 29.7214L9.33727 27.7477L11.1816 26.4612Z" fill="#0ABDE3"/>
<path d="M20.9236 13C15.4676 13 11.005 17.4258 11.005 22.875V25.1562C8.71308 25.7343 7 27.8242 7 30.2812C7 32.496 8.43143 34.3203 10.3793 35.0938L12.8823 41.5313C13.1249 42.2812 13.5434 42.875 14.0401 43.3437L12.2879 46.8749C11.5877 48.2694 12.1431 49.9883 13.5394 50.6874C13.9423 50.8906 14.3921 51 14.8222 51C15.8665 51 16.8913 50.4257 17.3879 49.4374L19.5782 45H23.3221C23.8756 45 24.3246 44.5523 24.3246 44C24.3246 43.4476 23.8756 42.9999 23.3221 42.9999H21.411H31.0288H29.5361C29.015 42.9999 28.5144 43.4802 28.5144 44C28.5144 44.5168 29.0178 44.996 29.5361 45H44.4399L46.6119 49.4374C47.1087 50.4257 48.1335 51 49.1777 51C49.6079 51 50.0577 50.8906 50.4606 50.6874C51.8568 49.9883 52.4121 48.2694 51.7121 46.8749L49.9599 43.3437C50.4566 42.875 50.8751 42.2812 51.1175 41.5313L53.6207 35.0938C55.5684 34.3203 57 32.496 57 30.2812C57 27.8242 55.2869 25.7343 52.9949 25.1562V22.875C52.9949 17.4258 48.5324 13 43.0763 13H20.9236ZM20.9236 15H36.1039C36.6576 15 37.1064 14.5523 37.1064 14C37.1064 13.4477 36.6576 13 36.1039 13H32.1251H43.0763H42.2443C41.6906 13 41.2418 13.4477 41.2418 14C41.2418 14.5523 41.6906 15 42.2443 15H43.0763C47.4489 15 50.9925 18.5078 50.9925 22.875V25.0625C49.0839 25.332 47.4802 26.6289 46.7997 28.3749L45.1727 32.0937C45.0397 32.0508 44.9615 32.0196 44.7972 31.9687C44.0424 31.7421 42.9746 31.4453 41.6996 31.1562C39.1456 30.5781 35.7274 29.9999 32.1251 29.9999C28.523 29.9999 25.0382 30.5742 22.4256 31.1562C21.1192 31.4453 20.0123 31.7383 19.234 31.9687C19.0581 32.0196 18.9681 32.0508 18.8273 32.0937L17.2941 28.6562C16.6839 26.7695 15.0139 25.3476 13.0075 25.0625V22.875C13.0075 18.5078 16.5511 15 20.9236 15ZM12.2879 27C13.778 27 15.0491 28.1094 15.448 29.4687L17.3879 33.75L17.8573 34.7812L18.1527 34.6239C19.0475 34.1471 19.9968 33.7793 20.9822 33.5385C21.6072 33.3859 22.3155 33.2161 22.8635 33.0937C25.3784 32.5351 28.738 32 32.1251 32C35.5122 32 38.8092 32.539 41.2615 33.0937C41.8501 33.2271 42.6355 33.4272 43.2926 33.599C44.1382 33.8202 44.9543 34.1389 45.7313 34.5384L46.1427 34.75L46.6119 33.7187L48.6458 29.1875C49.1112 27.9452 50.3002 27 51.7121 27C53.5308 27 54.9974 28.4648 54.9974 30.2812C54.9974 31.7891 53.9727 33.0234 52.5882 33.4063L52.0876 33.5312L51.9311 34L49.2716 40.8124C48.9781 41.8319 48.0826 42.4218 47.1126 42.7186C46.2796 42.9765 45.6185 42.9999 45.4229 42.9999H21.411H18.6082C18.444 42.9999 17.7477 42.9843 16.8873 42.7186C15.9174 42.4218 15.0217 41.8007 14.7284 40.7812L12.0688 34L11.9124 33.5312L11.4118 33.4063C10.0233 33.0234 9.00255 31.7891 9.00255 30.2812C9.00255 28.4648 10.4692 27 12.2879 27ZM15.761 44.4062C15.9369 44.4765 16.1247 44.5741 16.2929 44.6249C16.6957 44.7499 17.0712 44.8202 17.4193 44.875L15.5732 48.5312C15.4206 48.8359 15.1351 48.9999 14.8222 48.9999C14.6972 48.9999 14.572 48.9687 14.4468 48.9062C14.0166 48.6913 13.8562 48.2109 14.0713 47.7812L15.761 44.4062ZM48.239 44.4062L49.9287 47.7812C50.1437 48.2109 49.9834 48.6913 49.5531 48.9062C49.428 48.9687 49.3028 48.9999 49.1777 48.9999C48.8647 48.9999 48.5793 48.8397 48.4268 48.5312L46.5807 44.875C46.9288 44.8202 47.3043 44.7499 47.7071 44.6249C47.8753 44.5741 48.063 44.4765 48.239 44.4062Z" fill="black"/>
</svg>
